<?xml version="1.0" encoding="utf-8"?>
<svg width="100%" height="100%" viewBox="0 0 824 834" preserveAspectRatio="xMidYMid meet" fill="none" xmlns="http://www.w3.org/2000/svg">
  <defs>
    <linearGradient id="gradient_1" gradientUnits="userSpaceOnUse" x1="300" y1="0" x2="300" y2="600">
      <stop offset="0" stop-color="#A1A7F6" />
      <stop offset="1" stop-color="#FFFFFF" stop-opacity="0.2" />
    </linearGradient>
  </defs>
  <g>
    <g transform="translate(145 58)">
      <g>
        <path d="M300 0C465.708 0 600 134.292 600 300C600 300 600 300 600 300C600 465.708 465.708 600 300 600C300 600 300 600 300 600C134.292 600 0 465.708 0 300C0 300 0 300 0 300C0 134.292 134.292 0 300 0Z" fill="#5A00FF" fill-rule="evenodd" />
        <path d="M300 0C465.708 0 600 134.292 600 300C600 300 600 300 600 300C600 465.708 465.708 600 300 600C300 600 300 600 300 600C134.292 600 0 465.708 0 300C0 300 0 300 0 300C0 134.292 134.292 0 300 0Z" fill="url(#gradient_1)" fill-rule="evenodd" />
      </g>
      <path d="M0 110.5C0 49.4725 49.4725 0 110.5 0C171.527 0 221 49.4725 221 110.5C221 171.527 171.527 221 110.5 221C49.4725 221 0 171.527 0 110.5Z" fill="#FFFFFF" fill-rule="evenodd" transform="translate(294 341)" />
      <path d="M0 55.5C0 24.8482 24.8482 0 55.5 0C86.1518 0 111 24.8482 111 55.5C111 86.1518 86.1518 111 55.5 111C24.8482 111 0 86.1518 0 55.5Z" fill="#FFFFFF" fill-rule="evenodd" transform="translate(48 269)" />
      <path d="M0 182.5C0 81.708 81.708 0 182.5 0C283.292 0 365 81.708 365 182.5C365 283.292 283.292 365 182.5 365C81.708 365 0 283.292 0 182.5Z" fill="#FFFFFF" fill-rule="evenodd" transform="translate(188 39)" />
      <path d="M0 57C0 25.5198 25.5198 0 57 0C88.4802 0 114 25.5198 114 57C114 88.4802 88.4802 114 57 114C25.5198 114 0 88.4802 0 57Z" fill="#FFFFFF" fill-rule="evenodd" transform="translate(376 130)" />
    </g>
  </g>
</svg>