<svg t="1748332003112" class="icon" viewBox="0 0 1024 1024" version="1.1"
    xmlns="http://www.w3.org/2000/svg" p-id="1198" width="200" height="200">
    <path
        d="M82.784 773.76l409.152 175.36c23.36 10.016 49.824 10.016 73.184 0l409.152-175.36a30.976 30.976 0 0 0-24.384-56.96l-409.152 175.36a30.976 30.976 0 0 1-24.416 0L107.2 716.8a30.976 30.976 0 1 0-24.384 56.96z"
        fill="var(--vp-c-brand-1)" p-id="1199"></path>
    <path
        d="M949.888 469.088a30.976 30.976 0 1 1 24.384 56.928l-409.152 175.36a92.896 92.896 0 0 1-73.184 0l-409.152-175.36a30.976 30.976 0 0 1 24.384-56.96l409.152 175.36a30.976 30.976 0 0 0 24.416 0zM539.008 65.504l4.032 1.408L969.824 245.76a38.016 38.016 0 0 1 0 70.048L543.04 494.624c-9.28 3.904-19.744 3.904-29.024 0L87.232 315.84a38.016 38.016 0 0 1 0-70.08l426.784-178.816c7.968-3.328 16.768-3.808 24.96-1.408zM528.48 128L163.904 280.768l364.608 152.8 364.64-152.8L528.512 128z"
        fill="var(--vp-c-text-1)" p-id="1200"></path>
</svg>