<?xml version="1.0" encoding="utf-8"?>
<svg width="2545" height="834" viewBox="0 0 2545 834" fill="none" xmlns="http://www.w3.org/2000/svg">
  <defs>
    <linearGradient id="gradient_1" gradientUnits="userSpaceOnUse" x1="300" y1="0" x2="300" y2="600">
      <stop offset="0" stop-color="#A1A7F6" />
      <stop offset="1" stop-color="#FFFFFF" stop-opacity="0.2" />
    </linearGradient>
    <linearGradient id="gradient_2" gradientUnits="userSpaceOnUse" x1="110.5" y1="0" x2="110.5" y2="221">
      <stop offset="0.468" stop-color="#BFBAF6" />
      <stop offset="1" stop-color="#FFFFFF" />
    </linearGradient>
    <filter color-interpolation-filters="sRGB" x="-219" y="-219" width="221" height="221" id="filter_3">
      <feFlood flood-opacity="0" result="BackgroundImageFix_1" />
      <feColorMatrix type="matrix" values="0 0 0 0 0 0 0 0 0 0 0 0 0 0 0 0 0 0 1 0" in="SourceAlpha" />
      <feOffset dx="0" dy="4" />
      <feGaussianBlur stdDeviation="2" />
      <feColorMatrix type="matrix" values="0 0 0 0 0 0 0 0 0 0 0 0 0 0 0 0 0 0 0.251 0" />
      <feBlend mode="normal" in2="BackgroundImageFix_1" result="Shadow_2" />
      <feBlend mode="normal" in="SourceGraphic" in2="Shadow_2" result="Shape_3" />
    </filter>
    <linearGradient id="gradient_4" gradientUnits="userSpaceOnUse" x1="55.5" y1="0" x2="55.5" y2="111">
      <stop offset="0" stop-color="#FFFFFF" />
      <stop offset="1" stop-color="#A8A7F3" />
    </linearGradient>
    <filter color-interpolation-filters="sRGB" x="-109" y="-109" width="111" height="111" id="filter_5">
      <feFlood flood-opacity="0" result="BackgroundImageFix_1" />
      <feColorMatrix type="matrix" values="0 0 0 0 0 0 0 0 0 0 0 0 0 0 0 0 0 0 1 0" in="SourceAlpha" />
      <feOffset dx="0" dy="4" />
      <feGaussianBlur stdDeviation="2" />
      <feColorMatrix type="matrix" values="0 0 0 0 0 0 0 0 0 0 0 0 0 0 0 0 0 0 0.251 0" />
      <feBlend mode="normal" in2="BackgroundImageFix_1" result="Shadow_2" />
      <feBlend mode="normal" in="SourceGraphic" in2="Shadow_2" result="Shape_3" />
    </filter>
    <linearGradient id="gradient_6" gradientUnits="userSpaceOnUse" x1="182.5" y1="0" x2="182.5" y2="365">
      <stop offset="0.382" stop-color="#A594F6" />
      <stop offset="1" stop-color="#FFFFFF" />
    </linearGradient>
    <filter color-interpolation-filters="sRGB" x="-363" y="-363" width="365" height="365" id="filter_7">
      <feFlood flood-opacity="0" result="BackgroundImageFix_1" />
      <feColorMatrix type="matrix" values="0 0 0 0 0 0 0 0 0 0 0 0 0 0 0 0 0 0 1 0" in="SourceAlpha" />
      <feOffset dx="0" dy="4" />
      <feGaussianBlur stdDeviation="2" />
      <feColorMatrix type="matrix" values="0 0 0 0 0 0 0 0 0 0 0 0 0 0 0 0 0 0 0.251 0" />
      <feBlend mode="normal" in2="BackgroundImageFix_1" result="Shadow_2" />
      <feBlend mode="normal" in="SourceGraphic" in2="Shadow_2" result="Shape_3" />
    </filter>
    <linearGradient id="gradient_8" gradientUnits="userSpaceOnUse" x1="57" y1="0" x2="57" y2="114">
      <stop offset="0" stop-color="#FFFFFF" />
      <stop offset="0.614" stop-color="#C7BAF8" />
    </linearGradient>
    <filter color-interpolation-filters="sRGB" x="-112" y="-112" width="114" height="114" id="filter_9">
      <feFlood flood-opacity="0" result="BackgroundImageFix_1" />
      <feColorMatrix type="matrix" values="0 0 0 0 0 0 0 0 0 0 0 0 0 0 0 0 0 0 1 0" in="SourceAlpha" />
      <feOffset dx="0" dy="4" />
      <feGaussianBlur stdDeviation="2" />
      <feColorMatrix type="matrix" values="0 0 0 0 0 0 0 0 0 0 0 0 0 0 0 0 0 0 0.251 0" />
      <feBlend mode="normal" in2="BackgroundImageFix_1" result="Shadow_2" />
      <feBlend mode="normal" in="SourceGraphic" in2="Shadow_2" result="Shape_3" />
    </filter>
  </defs>
  <g>
    <g>
      <g transform="translate(145 58)">
        <g>
          <path d="M300 0C465.708 0 600 134.292 600 300C600 300 600 300 600 300C600 465.708 465.708 600 300 600C300 600 300 600 300 600C134.292 600 0 465.708 0 300C0 300 0 300 0 300C0 134.292 134.292 0 300 0Z" fill="#5A00FF" fill-rule="evenodd" />
          <path d="M300 0C465.708 0 600 134.292 600 300C600 300 600 300 600 300C600 465.708 465.708 600 300 600C300 600 300 600 300 600C134.292 600 0 465.708 0 300C0 300 0 300 0 300C0 134.292 134.292 0 300 0Z" fill="url(#gradient_1)" fill-rule="evenodd" />
        </g>
        <path d="M0 110.5C0 49.4725 49.4725 0 110.5 0C171.527 0 221 49.4725 221 110.5C221 171.527 171.527 221 110.5 221C49.4725 221 0 171.527 0 110.5Z" fill="url(#gradient_2)" fill-rule="evenodd" filter="url(#filter_3)" transform="translate(294 341)" />
        <path d="M0 55.5C0 24.8482 24.8482 0 55.5 0C86.1518 0 111 24.8482 111 55.5C111 86.1518 86.1518 111 55.5 111C24.8482 111 0 86.1518 0 55.5Z" fill="url(#gradient_4)" fill-rule="evenodd" filter="url(#filter_5)" transform="translate(48 269)" />
        <path d="M0 182.5C0 81.708 81.708 0 182.5 0C283.292 0 365 81.708 365 182.5C365 283.292 283.292 365 182.5 365C81.708 365 0 283.292 0 182.5Z" fill="url(#gradient_6)" fill-rule="evenodd" filter="url(#filter_7)" transform="translate(188 39)" />
        <path d="M0 57C0 25.5198 25.5198 0 57 0C88.4802 0 114 25.5198 114 57C114 88.4802 88.4802 114 57 114C25.5198 114 0 88.4802 0 57Z" fill="url(#gradient_8)" fill-rule="evenodd" filter="url(#filter_9)" transform="translate(401 130)" />
      </g>
    </g>

  </g>
</svg>